{
    "asset" : {
        "generator" : "Khronos glTF Blender I/O v1.7.33",
        "version" : "2.0"
    },
    "scene" : 0,
    "scenes" : [
        {
            "name" : "Scene",
            "nodes" : [
                10
            ]
        }
    ],
    "nodes" : [
        {
            "mesh" : 0,
            "name" : "Body1",
            "scale" : [
                10,
                10,
                10
            ]
        },
        {
            "children" : [
                0
            ],
            "name" : "RACK"
        },
        {
            "children" : [
                1
            ],
            "name" : "RACK:1"
        },
        {
            "mesh" : 1,
            "name" : "Body1.001",
            "scale" : [
                10,
                10,
                10
            ]
        },
        {
            "mesh" : 2,
            "name" : "Body2",
            "scale" : [
                10,
                10,
                10
            ]
        },
        {
            "mesh" : 3,
            "name" : "Body3",
            "scale" : [
                10,
                10,
                10
            ]
        },
        {
            "mesh" : 4,
            "name" : "Body4",
            "scale" : [
                10,
                10,
                10
            ]
        },
        {
            "mesh" : 5,
            "name" : "Body5",
            "scale" : [
                10,
                10,
                10
            ]
        },
        {
            "children" : [
                3,
                4,
                5,
                6,
                7
            ],
            "name" : "SERVER"
        },
        {
            "children" : [
                8
            ],
            "name" : "SERVER:1"
        },
        {
            "children" : [
                2,
                9
            ],
            "name" : "PREM v2",
            "rotation" : [
                0.7071068286895752,
                0,
                0,
                0.7071067094802856
            ],
            "scale" : [
                0.0010000000474974513,
                0.0010000000474974513,
                0.0010000000474974513
            ]
        }
    ],
    "materials" : [
        {
            "doubleSided" : true,
            "name" : "Plastic - Matte (Black)",
            "pbrMetallicRoughness" : {
                "baseColorFactor" : [
                    0.09803921729326248,
                    0.09803921729326248,
                    0.09803921729326248,
                    1
                ],
                "roughnessFactor" : 0.5527864098548889
            }
        },
        {
            "doubleSided" : true,
            "name" : "Powder Coat - Rough (Grey)",
            "pbrMetallicRoughness" : {
                "baseColorFactor" : [
                    0.7019608020782471,
                    0.7019608020782471,
                    0.7019608020782471,
                    1
                ],
                "roughnessFactor" : 0.5527864098548889
            }
        }
    ],
    "meshes" : [
        {
            "name" : "Body1",
            "primitives" : [
                {
                    "attributes" : {
                        "POSITION" : 0,
                        "NORMAL" : 1,
                        "TEXCOORD_0" : 2
                    },
                    "indices" : 3,
                    "material" : 0
                }
            ]
        },
        {
            "name" : "Body1.001",
            "primitives" : [
                {
                    "attributes" : {
                        "POSITION" : 4,
                        "NORMAL" : 5,
                        "TEXCOORD_0" : 6
                    },
                    "indices" : 7,
                    "material" : 1
                }
            ]
        },
        {
            "name" : "Body2",
            "primitives" : [
                {
                    "attributes" : {
                        "POSITION" : 8,
                        "NORMAL" : 9,
                        "TEXCOORD_0" : 10
                    },
                    "indices" : 7,
                    "material" : 1
                }
            ]
        },
        {
            "name" : "Body3",
            "primitives" : [
                {
                    "attributes" : {
                        "POSITION" : 11,
                        "NORMAL" : 12,
                        "TEXCOORD_0" : 13
                    },
                    "indices" : 7,
                    "material" : 1
                }
            ]
        },
        {
            "name" : "Body4",
            "primitives" : [
                {
                    "attributes" : {
                        "POSITION" : 14,
                        "NORMAL" : 15,
                        "TEXCOORD_0" : 16
                    },
                    "indices" : 17,
                    "material" : 1
                }
            ]
        },
        {
            "name" : "Body5",
            "primitives" : [
                {
                    "attributes" : {
                        "POSITION" : 18,
                        "NORMAL" : 19,
                        "TEXCOORD_0" : 20
                    },
                    "indices" : 17,
                    "material" : 1
                }
            ]
        }
    ],
    "accessors" : [
        {
            "bufferView" : 0,
            "componentType" : 5126,
            "count" : 58,
            "max" : [
                5,
                12,
                0
            ],
            "min" : [
                0,
                0,
                -7
            ],
            "type" : "VEC3"
        },
        {
            "bufferView" : 1,
            "componentType" : 5126,
            "count" : 58,
            "type" : "VEC3"
        },
        {
            "bufferView" : 2,
            "componentType" : 5126,
            "count" : 58,
            "type" : "VEC2"
        },
        {
            "bufferView" : 3,
            "componentType" : 5123,
            "count" : 144,
            "type" : "SCALAR"
        },
        {
            "bufferView" : 4,
            "componentType" : 5126,
            "count" : 30,
            "max" : [
                4.75,
                11.20432186126709,
                -0.30000001192092896
            ],
            "min" : [
                0.25,
                10.70432186126709,
                -5.300000190734863
            ],
            "type" : "VEC3"
        },
        {
            "bufferView" : 5,
            "componentType" : 5126,
            "count" : 30,
            "type" : "VEC3"
        },
        {
            "bufferView" : 6,
            "componentType" : 5126,
            "count" : 30,
            "type" : "VEC2"
        },
        {
            "bufferView" : 7,
            "componentType" : 5123,
            "count" : 72,
            "type" : "SCALAR"
        },
        {
            "bufferView" : 8,
            "componentType" : 5126,
            "count" : 30,
            "max" : [
                4.75,
                8.95432186126709,
                -0.30000001192092896
            ],
            "min" : [
                0.25,
                8.45432186126709,
                -5.300000190734863
            ],
            "type" : "VEC3"
        },
        {
            "bufferView" : 9,
            "componentType" : 5126,
            "count" : 30,
            "type" : "VEC3"
        },
        {
            "bufferView" : 10,
            "componentType" : 5126,
            "count" : 30,
            "type" : "VEC2"
        },
        {
            "bufferView" : 11,
            "componentType" : 5126,
            "count" : 30,
            "max" : [
                4.75,
                6.704321384429932,
                -0.30000001192092896
            ],
            "min" : [
                0.25,
                6.204321384429932,
                -5.300000190734863
            ],
            "type" : "VEC3"
        },
        {
            "bufferView" : 12,
            "componentType" : 5126,
            "count" : 30,
            "type" : "VEC3"
        },
        {
            "bufferView" : 13,
            "componentType" : 5126,
            "count" : 30,
            "type" : "VEC2"
        },
        {
            "bufferView" : 14,
            "componentType" : 5126,
            "count" : 30,
            "max" : [
                4.75,
                4.454321384429932,
                -0.30000001192092896
            ],
            "min" : [
                0.25,
                3.9543213844299316,
                -5.300000190734863
            ],
            "type" : "VEC3"
        },
        {
            "bufferView" : 15,
            "componentType" : 5126,
            "count" : 30,
            "type" : "VEC3"
        },
        {
            "bufferView" : 16,
            "componentType" : 5126,
            "count" : 30,
            "type" : "VEC2"
        },
        {
            "bufferView" : 17,
            "componentType" : 5123,
            "count" : 72,
            "type" : "SCALAR"
        },
        {
            "bufferView" : 18,
            "componentType" : 5126,
            "count" : 30,
            "max" : [
                4.75,
                2.2043213844299316,
                -0.30000001192092896
            ],
            "min" : [
                0.25,
                1.7043213844299316,
                -5.300000190734863
            ],
            "type" : "VEC3"
        },
        {
            "bufferView" : 19,
            "componentType" : 5126,
            "count" : 30,
            "type" : "VEC3"
        },
        {
            "bufferView" : 20,
            "componentType" : 5126,
            "count" : 30,
            "type" : "VEC2"
        }
    ],
    "bufferViews" : [
        {
            "buffer" : 0,
            "byteLength" : 696,
            "byteOffset" : 0
        },
        {
            "buffer" : 0,
            "byteLength" : 696,
            "byteOffset" : 696
        },
        {
            "buffer" : 0,
            "byteLength" : 464,
            "byteOffset" : 1392
        },
        {
            "buffer" : 0,
            "byteLength" : 288,
            "byteOffset" : 1856
        },
        {
            "buffer" : 0,
            "byteLength" : 360,
            "byteOffset" : 2144
        },
        {
            "buffer" : 0,
            "byteLength" : 360,
            "byteOffset" : 2504
        },
        {
            "buffer" : 0,
            "byteLength" : 240,
            "byteOffset" : 2864
        },
        {
            "buffer" : 0,
            "byteLength" : 144,
            "byteOffset" : 3104
        },
        {
            "buffer" : 0,
            "byteLength" : 360,
            "byteOffset" : 3248
        },
        {
            "buffer" : 0,
            "byteLength" : 360,
            "byteOffset" : 3608
        },
        {
            "buffer" : 0,
            "byteLength" : 240,
            "byteOffset" : 3968
        },
        {
            "buffer" : 0,
            "byteLength" : 360,
            "byteOffset" : 4208
        },
        {
            "buffer" : 0,
            "byteLength" : 360,
            "byteOffset" : 4568
        },
        {
            "buffer" : 0,
            "byteLength" : 240,
            "byteOffset" : 4928
        },
        {
            "buffer" : 0,
            "byteLength" : 360,
            "byteOffset" : 5168
        },
        {
            "buffer" : 0,
            "byteLength" : 360,
            "byteOffset" : 5528
        },
        {
            "buffer" : 0,
            "byteLength" : 240,
            "byteOffset" : 5888
        },
        {
            "buffer" : 0,
            "byteLength" : 144,
            "byteOffset" : 6128
        },
        {
            "buffer" : 0,
            "byteLength" : 360,
            "byteOffset" : 6272
        },
        {
            "buffer" : 0,
            "byteLength" : 360,
            "byteOffset" : 6632
        },
        {
            "buffer" : 0,
            "byteLength" : 240,
            "byteOffset" : 6992
        }
    ],
    "buffers" : [
        {
            "byteLength" : 7232,
            "uri" : "data:application/octet-stream;base64,"
        }
    ]
}
